<svg width="108" height="108" viewBox="0 0 108 108" fill="none" xmlns="http://www.w3.org/2000/svg">
<path d="M101.826 47.7668L57.3225 52.5649L92.9936 23.862C95.4374 21.4201 95.4374 17.5216 92.9936 15.0797C90.5498 12.6378 86.6483 12.6378 84.2045 15.0797L55.4789 50.7227L60.2808 6.25466C60.2379 2.78461 57.4511 0 54.0212 0C50.5913 0 47.8045 2.78461 47.8045 6.21182L52.6064 50.6799L23.8808 15.0369C21.437 12.595 17.5355 12.595 15.0916 15.0369C12.6478 17.4788 12.6478 21.3772 15.0916 23.8191L50.7628 52.522L6.21672 47.7668C2.78681 47.7668 0 50.5514 0 53.9786C0 57.4058 2.78681 60.1904 6.21672 60.1904L50.9771 55.3923L16.5922 83.067C14.1484 85.5089 14.1484 89.4074 16.5922 91.8493C19.036 94.2911 22.9376 94.2911 25.3814 91.8493L52.4777 58.2626L47.8045 101.788C47.8045 105.215 50.5913 108 54.0212 108C57.4511 108 60.2379 105.215 60.2379 101.788L55.436 57.3201L84.1616 92.9631C86.6054 95.405 90.5069 95.405 92.9508 92.9631C95.3946 90.5212 95.3946 86.6228 92.9508 84.1809L57.2796 55.478L101.783 60.2761C105.213 60.2761 108 57.4915 108 54.0643C108.042 50.5514 105.256 47.7668 101.826 47.7668Z" fill="#121212"/>
</svg>
