<svg width="1099" height="168" viewBox="0 0 1099 168" fill="none" xmlns="http://www.w3.org/2000/svg">
<path d="M310.814 128.656C335.654 128.656 347.66 115.96 347.66 99.124C347.66 64.762 294.806 74.56 294.806 59.932C294.806 54.412 299.498 50.686 307.916 50.686C317.3 50.686 327.236 53.86 334.688 60.76L345.59 46.408C336.482 37.99 324.338 33.574 309.71 33.574C288.044 33.574 274.796 46.27 274.796 61.588C274.796 96.226 327.788 85.048 327.788 101.332C327.788 106.576 322.544 111.544 311.78 111.544C299.084 111.544 289.01 105.886 282.524 99.124L271.898 114.028C280.454 122.722 293.15 128.656 310.814 128.656ZM404.462 128.656C432.338 128.656 452.624 108.784 452.624 81.046C452.624 53.308 432.338 33.436 404.462 33.436C376.724 33.436 356.438 53.308 356.438 81.046C356.438 108.784 376.724 128.656 404.462 128.656ZM404.462 111.268C387.488 111.268 376.586 98.158 376.586 81.046C376.586 63.796 387.488 50.824 404.462 50.824C421.436 50.824 432.476 63.796 432.476 81.046C432.476 98.158 421.436 111.268 404.462 111.268ZM485.972 127V88.912H530.546V71.662H485.972V52.204H531.512V34.954H466.376V127H485.972ZM586.199 127V52.204H612.971V34.954H539.555V52.204H566.465V127H586.199ZM675.49 127C693.016 127 702.262 115.96 702.262 102.16C702.262 90.568 694.396 81.046 684.598 79.528C693.292 77.734 700.468 70.006 700.468 58.414C700.468 46.132 691.498 34.954 673.972 34.954H625.534V127H675.49ZM669.694 71.8H645.13V51.79H669.694C676.318 51.79 680.458 56.068 680.458 61.864C680.458 67.66 676.318 71.8 669.694 71.8ZM670.384 110.026H645.13V88.636H670.384C678.112 88.636 682.252 93.604 682.252 99.4C682.252 106.024 677.836 110.026 670.384 110.026ZM758.578 128.656C786.592 128.656 800.116 113.062 800.116 90.154V34.954H780.106V89.602C780.106 102.436 772.792 111.268 758.578 111.268C744.364 111.268 736.912 102.436 736.912 89.602V34.954H717.04V90.292C717.04 112.924 730.564 128.656 758.578 128.656ZM892.769 127L872.069 91.948C882.005 89.602 892.217 80.908 892.217 64.624C892.217 47.512 880.487 34.954 861.305 34.954H818.249V127H837.845V94.294H852.197L870.275 127H892.769ZM858.407 77.044H837.845V52.204H858.407C866.273 52.204 872.207 56.896 872.207 64.624C872.207 72.352 866.273 77.044 858.407 77.044ZM951.498 128.794C968.196 128.794 981.306 121.894 990.69 111.406V76.078H946.806V93.19H971.094V104.23C967.368 107.68 959.64 111.268 951.498 111.268C934.8 111.268 922.656 98.434 922.656 81.046C922.656 63.658 934.8 50.824 951.498 50.824C961.296 50.824 969.162 56.344 973.302 62.83L989.586 53.998C982.686 43.096 970.68 33.436 951.498 33.436C924.588 33.436 902.508 51.928 902.508 81.046C902.508 110.026 924.588 128.794 951.498 128.794ZM1089.05 127V34.954H1069.31V71.11H1025.84V34.954H1006.25V127H1025.84V88.36H1069.31V127H1089.05Z" fill="#9FE870"/>
<path d="M121 2.55078H197C217.987 2.55078 235 19.564 235 40.5508V40.5508C235 61.5376 217.987 78.5508 197 78.5508H121V2.55078Z" fill="#E5FFD5"/>
<path d="M120.5 78.1074H196.5C217.487 78.1074 234.5 95.1206 234.5 116.107V116.107C234.5 137.094 217.487 154.107 196.5 154.107H120.5V78.1074Z" fill="#E5FFD5"/>
<path d="M113.673 16.5874C107.542 10.721 105.566 4.26292 105.344 1.7672C101.232 11.8602 91.7724 34.9741 86.8291 46.6859C81.8858 58.3976 86.4181 65.8662 89.3021 68.1366C109.582 88.1948 151.984 130.171 159.349 137.611C166.715 145.05 167.622 149.932 167.156 151.442C172.049 138.998 182.691 111.991 186.105 103.513C189.519 95.036 186.619 88.9985 184.742 87.0393C163.606 65.9997 119.803 22.4538 113.673 16.5874Z" fill="#9FE870"/>
<path d="M70 100.606H93.839C101.638 100.606 109.132 103.637 114.706 109.093C126.806 120.937 143.032 137.01 149 143.606C156.6 152.006 149.5 154.106 145 154.106H0C13.6 114.906 52.3333 102.106 70 100.606Z" fill="#9FE870"/>
<path fill-rule="evenodd" clip-rule="evenodd" d="M197 2.55078H121V5.99418L194.952 78.5508H197C217.987 78.5508 235 61.5376 235 40.5508C235 19.564 217.987 2.55078 197 2.55078Z" fill="#9FE870"/>
</svg>
